<?xml version="1.0" encoding="UTF-8"?>
<!DOCTYPE svg PUBLIC "-//W3C//DTD SVG 1.1//EN" "http://www.w3.org/Graphics/SVG/1.1/DTD/svg11.dtd">
<!-- Creator: CorelDRAW -->
<svg xmlns="http://www.w3.org/2000/svg" xml:space="preserve" width="700px" height="400px" version="1.1" style="shape-rendering:geometricPrecision; text-rendering:geometricPrecision; image-rendering:optimizeQuality; fill-rule:evenodd; clip-rule:evenodd"
viewBox="0 0 700 400"
 xmlns:xlink="http://www.w3.org/1999/xlink"
 xmlns:xodm="http://www.corel.com/coreldraw/odm/2003">
 <defs>
  <style type="text/css">
   <![CDATA[
    .fil0 {fill:white}
    .fil1 {fill:white;fill-rule:nonzero}
   ]]>
  </style>
 </defs>
 <g id="Layer_x0020_1">
  <metadata id="CorelCorpID_0Corel-Layer"/>
 </g>
 <g id="Layer_x0020_1_0">
  <metadata id="CorelCorpID_1Corel-Layer"/>
 </g>
 <g id="Layer_x0020_1_1">
  <metadata id="CorelCorpID_2Corel-Layer"/>
 </g>
 <g id="Layer_x0020_1_2">
  <metadata id="CorelCorpID_3Corel-Layer"/>
 </g>
 <g id="Layer_x0020_1_3">
  <metadata id="CorelCorpID_4Corel-Layer"/>
 </g>
 <g id="Layer_x0020_1_4">
  <metadata id="CorelCorpID_5Corel-Layer"/>
 </g>
 <g id="Layer_x0020_1_5">
  <metadata id="CorelCorpID_6Corel-Layer"/>
  <g id="_2395894090832">
   <g>
    <path class="fil0" d="M171.203 -0.01l0 83.566 0 5.728 135.706 0c-11.705,-14.044 -17.776,-20.972 -26.677,-41.693l-59.801 0 0 -47.601 -5.729 0 0 53.328 5.729 0 53.871 0c3.396,10.827 9.36,21.08 17.391,30.238l-114.761 0 0 -83.566 -5.729 0z"/>
    <path class="fil1" d="M45.694 182.08l9.845 0c12.16,0 20.49,-1.332 25.035,-3.953 4.502,-2.663 6.774,-7.24 6.774,-13.731 0,-6.741 -2.104,-11.443 -6.354,-14.189 -4.207,-2.705 -12.454,-4.078 -24.698,-4.078l-10.602 0 0 35.951zm-45.694 107.104l0 -178.507 49.522 0c20.364,0 34.586,0.666 42.706,1.956 8.078,1.29 15.021,3.537 20.87,6.7 6.647,3.661 11.738,8.571 15.231,14.688 3.492,6.158 5.217,13.232 5.217,21.304 0,10.153 -2.609,18.225 -7.826,24.217 -5.217,5.95 -13.548,10.486 -24.992,13.606 12.79,0.957 22.846,5.41 30.041,13.315 7.237,7.948 10.855,18.517 10.855,31.79 0,9.487 -2.019,17.851 -6.101,25.091 -4.038,7.24 -9.887,12.858 -17.419,16.811 -6.142,3.245 -13.758,5.575 -22.762,6.948 -9.046,1.373 -23.814,2.081 -44.347,2.081l-50.995 0zm45.694 -36.451l17.25 0c11.655,0 19.902,-1.456 24.74,-4.327 4.839,-2.913 7.237,-7.739 7.237,-14.48 0,-7.49 -2.23,-12.691 -6.647,-15.687 -4.418,-2.954 -12.623,-4.452 -24.573,-4.452l-18.007 0 0 38.946zm125.509 36.451l0 -178.507 49.228 0 0 136.814 59.801 0c6.285,15.247 14.854,29.311 26.677,41.693l-135.706 0zm431.857 -65.661l0 -37.448 96.688 0c0.085,1.206 0.169,2.579 0.21,4.036 0.042,1.456 0.042,3.578 0.042,6.449 0,30.708 -8.204,54.509 -24.613,71.444 -16.367,16.936 -39.467,25.424 -69.213,25.424 -14.6,0 -27.644,-2.164 -39.004,-6.533 -11.402,-4.327 -21.542,-10.985 -30.504,-19.931 -8.541,-8.53 -15.189,-18.599 -19.944,-30.292 -4.712,-11.65 -7.069,-23.842 -7.069,-36.617 0,-13.314 2.315,-25.59 6.901,-36.741 4.586,-11.193 11.486,-21.221 20.575,-30.167 9.046,-8.697 19.438,-15.271 31.135,-19.765 11.739,-4.452 24.362,-6.699 37.91,-6.699 17.671,0 33.323,3.454 46.913,10.361 13.59,6.907 25.035,17.185 34.333,30.833l-42.664 20.222c-5.091,-6.907 -10.855,-12.025 -17.209,-15.396 -6.395,-3.37 -13.506,-5.076 -21.415,-5.076 -14.727,0 -26.34,4.868 -34.797,14.563 -8.456,9.737 -12.706,22.969 -12.706,39.821 0,16.977 4.25,30.334 12.706,40.071 8.457,9.778 20.07,14.646 34.797,14.646 12.496,0 22.93,-3.037 31.261,-9.07 8.373,-6.034 13.254,-14.065 14.642,-24.135l-48.975 0z"/>
    <path class="fil0" d="M402.22 106.37c51.658,0 93.536,41.87 93.536,93.52 0,51.649 -41.878,93.519 -93.536,93.519 -51.658,0 -93.535,-41.87 -93.535,-93.519 0,-51.65 41.877,-93.52 93.535,-93.52zm29.395 51.524c-7.162,0.565 -16.296,1.857 -23.11,3.57 -6.508,1.637 -13.156,6.02 -15.109,10.689 11.93,0.049 32.632,0.591 42.234,4.741 -17.857,0.075 -31.342,-0.916 -49.637,2.091 -10.445,1.715 -33.916,5.48 -42.164,9.704 7.049,10.502 3.495,14.189 -9.692,11.159 -1.107,7.061 0.105,15.923 4.64,19.818 0.1,-0.051 0.212,-0.192 0.252,-0.219 3.798,-2.566 2.291,-0.232 4.802,-1.872 -4.222,-14.869 11.84,-13.189 22.896,-12.566 5.384,0.303 11.182,0.712 16.533,1.445 2.68,0.368 5.482,0.812 8.12,1.27 4.506,0.784 4.601,0.602 5.031,3.975 -1.673,-2.333 -0.942,-2.219 -4.466,-2.524 -9.763,-0.849 -36.221,-2.042 -42.551,2.362 -0.102,3.375 1.301,5.438 2.385,7.89l57.316 -0.154c-6.479,0.586 -35.132,3.573 -38.485,5.533 -5.806,3.391 -7.946,5.513 -15.775,1.23 -4.467,-2.444 -12.743,-0.941 -17.535,-0.889 -3.572,-0.787 -4.623,-5.712 -4.836,-6.223 -1.387,-3.323 -1.979,-3.24 -2.75,-7.541 -1.309,-7.298 -2.172,-12.032 0.834,-18.853l9.863 2.476c-1.402,-2.343 -4.96,-4.274 -5.304,-5.898 -1.923,-9.081 36.892,-14.449 44.439,-15.975 6.702,-1.356 10.821,-11.146 19.905,-15.487 14.98,-7.16 49.279,-6.146 69.426,2.371 2.955,1.056 7.958,3.061 10.556,4.645 -19.081,-5.103 -21.613,-8.837 -47.818,-6.768zm16.906 50.421c0,-0.703 -0.519,-4.892 -0.901,-6.137 -0.308,-1.003 1.023,1.242 1.248,1.836 0.331,0.87 1.244,3.868 1.456,3.741 0.317,-0.19 -0.099,-2.771 -0.2,-3.317 -0.491,-2.655 -2.895,-7.013 -4.372,-8.739 -2.591,-2.991 -6.535,-3.956 -10.89,-3.956 -2.825,0 -5.29,0.659 -7.432,1.998 -2.141,1.338 -3.795,3.319 -4.947,5.929 -1.17,2.609 -1.746,5.666 -1.746,9.134 0,1.968 0.189,3.796 0.558,5.481 0.032,0.142 -0.028,1.218 -0.281,0.491 -0.304,-0.876 -0.834,-3.628 -1.078,-3.977 -0.361,-0.517 -0.476,1.005 -0.431,1.712 0.044,0.682 0.382,3.159 1.379,5.077 1.152,2.576 4.335,4.827 6.457,6.196 2.123,1.37 4.643,2.049 7.521,2.049 4.355,0 7.81,-1.503 10.401,-4.525 2.572,-3.007 3.258,-7.674 3.258,-12.993zm3.828 13.872l-2.27 3.074c-1.631,2.208 -4.093,3.567 -6.675,4.643 -2.581,1.075 -5.496,1.621 -8.727,1.621 -3.218,0 -6.105,-0.545 -8.66,-1.636 -2.557,-1.091 -4.782,-2.656 -6.662,-4.699 -1.867,-2.027 -3.297,-4.433 -4.264,-7.201 -0.967,-2.783 -1.456,-5.845 -1.456,-9.201 0,-3.199 0.437,-6.147 1.313,-8.835l-1.181 0.467c-25.519,8.268 -24.39,-7.833 -15.954,-12.454 5.346,-2.929 9.798,-1.166 15.907,-1.244 7.122,-4.886 15.999,-7.86 26.703,-7.542 -4.161,0.712 -10.839,2.824 -14.828,4.524 -5.26,2.241 -7.886,4.945 -11.875,7.434 -5.741,-0.784 -10.652,-1.299 -13.471,1.251 -1.072,0.969 -1.842,2.383 -2.24,4.393 6.443,0.14 6.63,1.195 15.879,-1.235 2.481,-1.075 3.027,-1.144 5.454,-3.274 1.841,-1.986 4.066,-3.524 6.675,-4.601 2.608,-1.077 5.495,-1.622 8.66,-1.622 3.205,0 6.119,0.545 8.727,1.635 2.609,1.092 4.847,2.659 6.715,4.686 3.174,3.423 4.709,7.376 5.76,11.886l4.769 19.291c0.35,1.417 0.294,3.196 -0.424,4.266 -1.263,1.885 -4.304,0.997 -5.76,-0.445 -1.004,-0.994 -1.708,-3.258 -2.115,-5.182z"/>
    <path class="fil0" d="M495.756 -0.01c0,51.649 -41.878,93.519 -93.536,93.519 -51.658,0 -93.535,-41.87 -93.535,-93.519l5.689 0c0,48.508 39.33,87.831 87.846,87.831 48.517,0 87.847,-39.323 87.847,-87.831l5.689 0z"/>
    <polygon class="fil0" points="220.431,310.578 214.702,310.578 176.932,310.578 171.203,310.578 171.203,399.99 176.932,399.99 176.932,316.305 214.702,316.305 214.702,399.99 220.431,399.99 220.431,316.305 "/>
    <path class="fil0" d="M402.22 306.27c51.658,0 93.536,41.87 93.536,93.52l-0.003 0.2 -5.689 0 0.003 -0.2c0,-48.508 -39.33,-87.832 -87.847,-87.832 -48.516,0 -87.846,39.324 -87.846,87.832l0.002 0.2 -5.689 0 -0.002 -0.2c0,-51.65 41.877,-93.52 93.535,-93.52z"/>
   </g>
   <g>
    <rect class="fil0" x="135.822" y="38.849" width="5.729" height="5.728"/>
    <path class="fil0" d="M0 -0.01l0 0.01 0 83.147 0 6.119 0 0.018 50.995 0c1.833,0 3.62,-0.005 5.361,-0.018l13.425 0 0 -0.221c11.045,-0.312 19.562,-0.929 25.561,-1.838 9.004,-1.369 16.62,-3.694 22.762,-6.932 7.532,-3.944 13.381,-9.548 17.419,-16.772 4.082,-7.224 6.101,-15.568 6.101,-25.034 0,-13.243 -3.618,-23.788 -10.855,-31.717 -2.457,-2.694 -5.247,-4.937 -8.367,-6.762l-122.402 0zm53.203 83.157l-47.474 0 0 -83.147 83.564 0 9.248 0c11.659,0.832 20.827,4.343 27.385,11.218 6.598,6.911 9.896,16.101 9.896,27.642 0,8.25 -1.841,15.523 -5.562,21.818 -3.682,6.296 -9.013,11.181 -15.879,14.618 -5.599,2.822 -12.542,4.848 -20.75,6.042 -8.246,1.194 -21.71,1.809 -40.428,1.809z"/>
    <path class="fil1" d="M39.965 65.581l19.3 0c15.456,0 24.817,-2.015 31.233,-5.728 6.418,-3.768 11.176,-9.88 11.176,-18.599 0,-9.689 -3.624,-15.972 -9.483,-19.847 -5.859,-3.822 -16.075,-6.204 -31.923,-6.204l-20.303 0 0 50.378zm5.729 -44.734l7.302 0c16.047,0 27.065,1.498 32.998,4.452 5.932,2.996 8.927,8.197 8.927,15.687 0,6.741 -3.22,11.567 -9.719,14.48 -6.497,2.871 -17.571,4.327 -33.222,4.327l-6.286 0 0 -38.946z"/>
    <path class="fil1" d="M603.06 23.624l0 -23.634 5.729 0 0 17.906 46.791 0c-1.93,13.965 -5.277,25.45 -17.509,34.266 -9.102,6.591 -20.501,9.909 -34.153,9.909 -16.089,0 -28.776,-5.318 -38.016,-16.001 -9.239,-10.639 -13.882,-25.23 -13.882,-43.778 0,-0.775 0.009,-1.542 0.025,-2.302l7.052 0c-0.014,0.662 -0.022,1.329 -0.022,2.004 0,15.955 3.994,28.507 11.941,37.658 7.949,9.19 18.862,13.765 32.702,13.765 11.744,0 21.55,-2.855 29.38,-8.525 6.849,-4.935 11.931,-13.463 13.808,-21.268l-43.846 0zm96.906 -23.634c-0.576,29.104 -8.769,51.796 -24.579,68.114 -16.367,16.936 -39.467,25.424 -69.213,25.424 -14.6,0 -27.644,-2.164 -39.004,-6.533 -11.402,-4.327 -21.542,-10.985 -30.504,-19.931 -8.541,-8.53 -15.189,-18.599 -19.944,-30.292 -4.712,-11.651 -7.069,-23.842 -7.069,-36.617l0.001 -0.165 5.728 0 0 0.165c0,12.006 2.214,23.464 6.643,34.413 4.468,10.989 10.716,20.452 18.743,28.469 8.423,8.407 17.952,14.665 28.669,18.732 10.676,4.106 22.934,6.139 36.656,6.139 27.956,0 49.665,-7.977 65.047,-23.893 15.421,-15.916 23.132,-33.398 23.132,-62.259l0 -1.766 5.694 0z"/>
    <rect class="fil0" x="135.822" y="355.213" width="5.729" height="5.728"/>
    <path class="fil0" d="M0 399.799l0 -0.009 0 -83.148 0 -6.119 0 -0.018 50.995 0c1.833,0 3.62,0.006 5.361,0.018l13.425 0 0 0.222c11.045,0.311 19.562,0.928 25.561,1.837 9.004,1.369 16.62,3.694 22.762,6.932 7.532,3.944 13.381,9.549 17.419,16.772 4.082,7.224 6.101,15.569 6.101,25.034 0,13.243 -3.618,23.788 -10.855,31.718 -2.457,2.693 -5.247,4.936 -8.367,6.761l-122.402 0zm53.203 -83.157l-47.474 0 0 83.148 83.564 0 9.248 0c11.659,-0.833 20.827,-4.344 27.385,-11.218 6.598,-6.911 9.896,-16.102 9.896,-27.643 0,-8.25 -1.841,-15.523 -5.562,-21.817 -3.682,-6.297 -9.013,-11.181 -15.879,-14.619 -5.599,-2.822 -12.542,-4.848 -20.75,-6.041 -8.246,-1.195 -21.71,-1.81 -40.428,-1.81z"/>
    <path class="fil1" d="M39.965 334.208l19.3 0c15.456,0 24.817,2.015 31.233,5.729 6.418,3.767 11.176,9.879 11.176,18.599 0,9.688 -3.624,15.971 -9.483,19.847 -5.859,3.821 -16.075,6.203 -31.923,6.203l-20.303 0 0 -50.378zm5.729 44.735l7.302 0c16.047,0 27.065,-1.498 32.998,-4.452 5.932,-2.996 8.927,-8.197 8.927,-15.687 0,-6.742 -3.22,-11.568 -9.719,-14.48 -6.497,-2.872 -17.571,-4.328 -33.222,-4.328l-6.286 0 0 38.947z"/>
    <path class="fil1" d="M603.06 399.99l0 -14.015 96.688 0c0.085,1.206 0.169,2.579 0.21,4.036 0.042,1.456 0.042,3.578 0.042,6.449 0,1.188 -0.014,2.363 -0.038,3.53l-5.69 0c-0.001,-1.921 -0.008,-3.406 -0.039,-4.495 -0.04,-1.368 -0.118,-2.659 -0.198,-3.793l-85.246 0 0 8.288 -5.729 0zm-93.407 0l0 -0.034c0,-13.316 2.315,-25.591 6.901,-36.742 4.586,-11.193 11.486,-21.221 20.575,-30.167 9.046,-8.696 19.438,-15.271 31.135,-19.765 11.739,-4.452 24.362,-6.699 37.91,-6.699 17.671,0 33.323,3.454 46.913,10.361 13.59,6.907 25.035,17.185 34.333,30.833l-5.377 2.548 -0.019 -0.027 -42.006 19.625c-4.785,-6.492 -10.202,-11.302 -16.173,-14.47 -6.01,-3.167 -12.693,-4.77 -20.127,-4.77 -13.84,0 -24.753,4.575 -32.702,13.686 -7.643,8.801 -11.629,20.64 -11.923,35.621l-7.051 0c0.342,-17.413 4.976,-31.173 13.86,-41.403 9.24,-10.591 21.927,-15.91 38.016,-15.91 8.641,0 16.41,1.864 23.396,5.545 6.942,3.683 10.697,6.023 16.26,13.569l35.002 -16.181c-7.983,-10.216 -17.447,-18.106 -28.394,-23.67 -12.771,-6.491 -27.482,-9.737 -44.089,-9.737 -12.733,0 -24.596,2.111 -35.628,6.296 -10.993,4.223 -20.76,10.402 -29.262,18.575 -8.541,8.408 -15.025,17.832 -19.336,28.352 -4.31,10.48 -6.485,22.016 -6.485,34.53l0 0.034 -5.729 0z"/>
   </g>
  </g>
 </g>
</svg>
