<?xml version="1.0" encoding="UTF-8"?>
<!DOCTYPE svg PUBLIC "-//W3C//DTD SVG 1.1//EN" "http://www.w3.org/Graphics/SVG/1.1/DTD/svg11.dtd">
<!-- Creator: CorelDRAW -->
<svg xmlns="http://www.w3.org/2000/svg" xml:space="preserve" width="150px" height="120px" version="1.1" style="shape-rendering:geometricPrecision; text-rendering:geometricPrecision; image-rendering:optimizeQuality; fill-rule:evenodd; clip-rule:evenodd"
viewBox="0 0 150 120"
 xmlns:xlink="http://www.w3.org/1999/xlink"
 xmlns:xodm="http://www.corel.com/coreldraw/odm/2003">
 <defs>
  <style type="text/css">
   <![CDATA[
    .fil0 {fill:black}
   ]]>
  </style>
 </defs>
 <g id="Layer_x0020_1">
  <metadata id="CorelCorpID_0Corel-Layer"/>
  <path class="fil0" d="M74.801 23.408c19.315,0 34.972,15.658 34.972,34.972 0,19.315 -15.657,34.972 -34.972,34.972 -19.314,0 -34.972,-15.657 -34.972,-34.972 0,-19.314 15.658,-34.972 34.972,-34.972zm9.472 46.637c-0.276,0.115 -0.789,0.628 -1.376,1.172 -2.11,1.353 -4.516,3.158 -7.768,3.321l-0.101 0.005 -0.213 0.005 -0.151 0.001 -0.175 -0.001 -0.182 -0.005 -0.131 -0.006c-0.082,-0.004 -0.164,-0.009 -0.246,-0.015l-0.032 -0.003c-3.104,-0.252 -5.428,-1.99 -7.475,-3.303 -0.585,-0.544 -1.099,-1.056 -1.375,-1.171 -0.702,-0.292 -1.334,-0.373 -1.881,-0.297 -0.073,-0.009 -0.145,-0.016 -0.217,-0.021l-0.081 0.08c-0.895,0.232 -1.516,0.909 -1.765,1.742l-0.122 0.12c0.003,0.119 0.011,0.237 0.022,0.355 -0.1,0.811 0.131,1.709 0.768,2.47 0.277,0.331 0.565,0.644 0.862,0.943 0.814,0.912 1.893,1.73 3.158,2.414 2.739,1.563 5.86,2.213 8.889,2.181 3.014,0.025 6.116,-0.624 8.84,-2.176 1.27,-0.685 2.353,-1.506 3.169,-2.422 0.296,-0.298 0.583,-0.61 0.859,-0.94 0.637,-0.759 0.867,-1.657 0.768,-2.467 0.012,-0.119 0.019,-0.238 0.023,-0.358l-0.123 -0.121c-0.249,-0.833 -0.87,-1.51 -1.765,-1.741l-0.081 -0.08c-0.072,0.005 -0.144,0.012 -0.215,0.021 -0.547,-0.076 -1.18,0.004 -1.883,0.297z"/>
  <path class="fil0" d="M119.032 74.984c8.558,0 15.485,-6.946 15.485,-15.504 0,-8.287 -6.511,-15.07 -14.724,-15.475 -5.812,-18.941 -23.439,-32.712 -44.285,-32.712 -20.84,0 -38.463,13.763 -44.28,32.695 -0.112,-0.003 -0.224,-0.003 -0.336,-0.003 -8.558,0 -15.496,6.937 -15.496,15.495 0,8.558 6.938,15.495 15.496,15.495 0.623,0 5.734,-0.558 6.124,-0.78 -2.111,-5.196 -3.278,-10.821 -3.278,-16.585 0,-23.069 18.701,-41.77 41.77,-41.77 23.069,0 41.77,18.701 41.77,41.77 0,17.756 -11.079,34.195 -26.701,40.827 -1.282,-1.703 -3.321,-2.803 -5.617,-2.803 -3.882,0 -7.029,3.146 -7.029,7.028 0,3.882 3.147,7.029 7.029,7.029 3.844,0 6.966,-3.085 7.027,-6.914 12.143,-5.031 21.838,-15.36 26.61,-27.844 0.195,0.029 0.162,0.038 0.435,0.051z"/>
 </g>
</svg>
