<?xml version="1.0" encoding="UTF-8"?>
<!DOCTYPE svg PUBLIC "-//W3C//DTD SVG 1.1//EN" "http://www.w3.org/Graphics/SVG/1.1/DTD/svg11.dtd">
<!-- Creator: CorelDRAW -->
<svg xmlns="http://www.w3.org/2000/svg" xml:space="preserve" width="150px" height="150px" version="1.1" style="shape-rendering:geometricPrecision; text-rendering:geometricPrecision; image-rendering:optimizeQuality; fill-rule:evenodd; clip-rule:evenodd"
viewBox="0 0 150 150"
 xmlns:xlink="http://www.w3.org/1999/xlink"
 xmlns:xodm="http://www.corel.com/coreldraw/odm/2003">
 <defs>
  <style type="text/css">
   <![CDATA[
    .str0 {stroke:red;stroke-width:5;stroke-miterlimit:2.61313}
    .fil0 {fill:none}
    .fil1 {fill:white}
   ]]>
  </style>
 </defs>
 <g id="Layer_x0020_1">
  <metadata id="CorelCorpID_0Corel-Layer"/>
 </g>
 <g id="Layer_x0020_1_0">
  <metadata id="CorelCorpID_1Corel-Layer"/>
 </g>
 <g id="Layer_x0020_1_1">
  <metadata id="CorelCorpID_2Corel-Layer"/>
 </g>
 <g id="Layer_x0020_1_2">
  <metadata id="CorelCorpID_3Corel-Layer"/>
  <circle class="fil0 str0" cx="75" cy="75" r="68.156"/>
  <g id="_2183420060432">
   <path class="fil1" d="M104.248 91.133c-0.412,3.445 -1.782,6.39 -4.083,8.706 -0.302,0.303 -0.595,0.652 -0.96,0.942 -3.71,2.939 -6.296,3.571 -11.127,3.57 -4.87,-0.001 -9.769,0.053 -14.636,-0.001 -2.421,-0.028 -4.859,0.02 -7.28,-0.006 -4.734,-0.051 -8.641,0.574 -12.869,-1.827 -2.224,-1.262 -3.964,-2.869 -5.219,-4.828 -2.022,-3.156 -2.414,-5.68 -2.414,-9.59 -0.002,-7.193 0.078,-14.737 -0.008,-21.914 -0.028,-2.27 -0.106,-5.243 0.095,-7.323 0.134,-1.392 0.348,-2.098 0.751,-3.333 0.033,-0.102 0.066,-0.214 0.104,-0.321 0.769,-2.141 2.492,-4.581 4.181,-5.969 3.431,-2.82 6.388,-3.568 11.12,-3.567 4.876,0.001 9.785,-0.054 14.659,0.001 2.966,0.034 12.512,-0.142 14.577,0.093 2.589,0.296 4.519,1.038 6.528,2.329 0.882,0.567 2.478,1.881 3.093,2.71 1.193,1.605 1.886,2.335 2.681,4.597 0.814,2.319 0.88,3.866 0.88,6.523 0.002,4.876 -0.056,9.787 0.003,14.66l0.007 10.913c0.008,1.126 0.046,2.55 -0.084,3.635l0.001 0zm5.369 -0.346c0.094,-1.355 0.042,-2.87 0.042,-4.247l-0.001 -21.667c-0.019,-2.811 0.141,-5.58 -0.379,-8.293 -1.609,-8.405 -8.865,-15.554 -18.49,-16.189 -2.724,-0.18 -5.824,-0.021 -8.604,-0.039l-17.333 0c-2.727,-0.017 -5.684,-0.143 -8.284,0.372 -8.476,1.679 -15.619,8.938 -16.201,18.485 -0.165,2.701 -0.061,5.863 -0.043,8.611l0 17.333c0.018,2.784 -0.147,5.61 0.377,8.287 0.649,3.315 2.497,7.142 4.693,9.436l1.608 1.604c1.3,1.264 3.649,2.793 5.231,3.444 1.153,0.474 1.991,0.812 3.203,1.108 4.274,1.043 7.874,0.615 12.369,0.643l17.334 0c4.778,0.029 7.848,0.216 12.192,-1.568 0.02,-0.008 0.043,-0.018 0.062,-0.026 1.798,-0.782 4.154,-2.18 5.458,-3.475l0.227 -0.196c2.085,-1.746 4.193,-4.976 5.145,-7.43 0.841,-2.17 1.228,-3.802 1.394,-6.194l0 0.001z"/>
   <path class="fil1" d="M73.819 61.786c2.057,-0.193 3.852,-0.005 5.738,0.686 1.064,0.391 1.64,0.711 2.569,1.254 3.356,1.961 5.799,6.038 6.141,10.074 0.66,7.788 -5.017,13.819 -12.061,14.498 -4.281,0.413 -8.68,-1.402 -11.274,-4.522 -0.611,-0.737 -0.667,-0.71 -1.226,-1.63l-0.451 -0.77c-0.806,-1.45 -1.381,-3.327 -1.543,-5.15 -0.288,-3.261 0.572,-6.437 2.48,-9.064 0.62,-0.853 1.617,-1.947 2.45,-2.57 2.548,-1.909 4.205,-2.529 7.177,-2.806zm-0.55 -5.35c-10.472,1.172 -17.655,9.863 -16.858,20.32 0.29,3.798 1.887,7.225 4.047,9.931 0.466,0.584 1.737,1.971 2.284,2.395 0.783,0.608 1.624,1.304 2.662,1.93 0.449,0.271 1.026,0.599 1.512,0.828 3.512,1.65 6.705,2.143 10.843,1.633 1.193,-0.147 2.518,-0.55 3.653,-0.949l0.876 -0.341c2.455,-1.105 4.367,-2.358 6.178,-4.302 1.223,-1.313 2.286,-2.682 3.155,-4.39l0.8 -1.8c1.871,-5.118 1.662,-10.839 -1.02,-15.547 -1.153,-2.026 -1.999,-3.118 -3.547,-4.601 -1.078,-1.034 -1.943,-1.722 -3.28,-2.524 -3.261,-1.957 -7.288,-3.032 -11.305,-2.583l0 0z"/>
   <path class="fil1" d="M94.558 51.045c-2.841,0.291 -4.435,3.414 -3.034,5.963 0.456,0.83 1.283,1.484 2.191,1.794 2.746,0.937 5.625,-1.359 5.25,-4.286 -0.267,-2.082 -2.101,-3.707 -4.407,-3.471l0 0z"/>
  </g>
 </g>
</svg>
