<?xml version="1.0" encoding="UTF-8"?>
<!DOCTYPE svg PUBLIC "-//W3C//DTD SVG 1.1//EN" "http://www.w3.org/Graphics/SVG/1.1/DTD/svg11.dtd">
<!-- Creator: CorelDRAW -->
<svg xmlns="http://www.w3.org/2000/svg" xml:space="preserve" width="150px" height="150px" version="1.1" style="shape-rendering:geometricPrecision; text-rendering:geometricPrecision; image-rendering:optimizeQuality; fill-rule:evenodd; clip-rule:evenodd"
viewBox="0 0 150 150"
 xmlns:xlink="http://www.w3.org/1999/xlink"
 xmlns:xodm="http://www.corel.com/coreldraw/odm/2003">
 <defs>
  <style type="text/css">
   <![CDATA[
    .str0 {stroke:red;stroke-width:5;stroke-miterlimit:2.61313}
    .fil0 {fill:none}
    .fil1 {fill:white}
   ]]>
  </style>
 </defs>
 <g id="Layer_x0020_1">
  <metadata id="CorelCorpID_0Corel-Layer"/>
 </g>
 <g id="Layer_x0020_1_0">
  <metadata id="CorelCorpID_1Corel-Layer"/>
 </g>
 <g id="Layer_x0020_1_1">
  <metadata id="CorelCorpID_2Corel-Layer"/>
 </g>
 <g id="Layer_x0020_1_2">
  <metadata id="CorelCorpID_3Corel-Layer"/>
 </g>
 <g id="Layer_x0020_1_3">
  <metadata id="CorelCorpID_4Corel-Layer"/>
  <circle class="fil0 str0" cx="74.159" cy="75.706" r="68.156"/>
  <g id="_2184576929216">
   <path class="fil1" d="M58.918 114.365c-0.357,-5.082 -0.661,-8.238 0.468,-13.166l4.112 -17.415c0.761,-3.054 -0.122,-2.654 -0.566,-5.582 -1.914,-12.615 9.893,-16.181 12.206,-9.261 1.139,3.413 -0.904,8.828 -1.852,11.944 -1.266,4.164 -2.463,8.266 0.999,10.612 5.853,3.966 13.72,-1.423 16.033,-10.128 7.327,-27.569 -26.524,-32.094 -33.89,-13.294 -3.875,9.892 1.993,16.03 2.094,16.974 0.091,0.863 -1.106,5.258 -1.466,5.863 -2.512,0.137 -5.418,-3.634 -6.448,-5.346 -1.459,-2.423 -2.585,-5.51 -2.948,-8.809 -0.397,-3.603 0.21,-7.362 1.256,-10.495 1.13,-3.386 2.522,-5.318 4.296,-7.653 1.498,-1.97 4.286,-4.124 6.425,-5.353 2.621,-1.507 5.267,-2.496 8.61,-3.171 6.877,-1.389 14.648,-0.42 19.998,2.626 4.792,2.726 8.851,6.7 10.978,12.559 2.385,6.573 1.648,13.982 -0.83,20.127 -3.535,8.769 -12.384,15.375 -21.379,13.826 -4.643,-0.799 -5.524,-2.391 -7.509,-4.473 -1.245,5.213 -2.7,11.49 -5.094,16.072 -0.76,1.454 -1.985,3.285 -2.526,4.557 1.157,0.785 6.52,1.569 8.316,1.738 3.227,0.306 6.652,0.229 9.828,-0.233 5.534,-0.805 11.24,-2.847 15.243,-5.368 1.76,-1.109 4.465,-2.869 5.896,-4.219 3.708,-3.501 6.664,-6.49 9.271,-11.325 1.233,-2.289 2.217,-4.44 3.14,-7.16 7.224,-21.299 -4.4,-45.141 -25.565,-52.424 -11.145,-3.836 -24.39,-2.739 -33.768,2.656 -3.058,1.76 -6.369,3.984 -8.785,6.473 -3.241,3.339 -4.361,4.38 -6.918,8.537 -7.484,12.163 -7.854,28.633 -1.4,40.748 2.347,4.408 4.377,7.093 7.671,10.348 0.413,0.408 0.819,0.928 1.256,1.312 2.542,2.234 8.459,6.677 12.848,7.902l0 0.001z"/>
  </g>
 </g>
</svg>
