<?xml version="1.0" encoding="UTF-8"?>
<!DOCTYPE svg PUBLIC "-//W3C//DTD SVG 1.1//EN" "http://www.w3.org/Graphics/SVG/1.1/DTD/svg11.dtd">
<!-- Creator: CorelDRAW -->
<svg xmlns="http://www.w3.org/2000/svg" xml:space="preserve" width="150px" height="150px" version="1.1" style="shape-rendering:geometricPrecision; text-rendering:geometricPrecision; image-rendering:optimizeQuality; fill-rule:evenodd; clip-rule:evenodd"
viewBox="0 0 150 150"
 xmlns:xlink="http://www.w3.org/1999/xlink"
 xmlns:xodm="http://www.corel.com/coreldraw/odm/2003">
 <defs>
  <style type="text/css">
   <![CDATA[
    .str0 {stroke:red;stroke-width:5;stroke-miterlimit:2.61313}
    .fil1 {fill:none}
    .fil0 {fill:white}
   ]]>
  </style>
 </defs>
 <g id="Layer_x0020_1">
  <metadata id="CorelCorpID_0Corel-Layer"/>
 </g>
 <g id="Layer_x0020_1_0">
  <metadata id="CorelCorpID_1Corel-Layer"/>
 </g>
 <g id="Layer_x0020_1_1">
  <metadata id="CorelCorpID_2Corel-Layer"/>
 </g>
 <g id="Layer_x0020_1_2">
  <metadata id="CorelCorpID_3Corel-Layer"/>
 </g>
 <g id="Layer_x0020_1_3">
  <metadata id="CorelCorpID_4Corel-Layer"/>
 </g>
 <g id="Layer_x0020_1_4">
  <metadata id="CorelCorpID_5Corel-Layer"/>
  <g id="_2184576424832">
   <path class="fil0" d="M88.366 100.628c-0.883,-1.185 -1.716,-2.43 -2.552,-3.636 -1.672,-2.415 -3.367,-4.866 -5.089,-7.286 -3.44,-4.836 -6.735,-9.745 -10.18,-14.567l-5.12 -7.329c-1.995,-2.989 -4.28,-6.072 -6.357,-9.115l-8.899 -12.76 8.863 -0.001c0.161,0.363 2.126,3.04 2.558,3.685 2.413,3.597 5.174,7.324 7.634,10.928l5.089 7.284c1.604,2.244 3.503,5.157 5.09,7.287l2.573 3.688c0.823,1.253 1.701,2.4 2.545,3.641l12.726 18.212c0.33,0.474 2.437,3.39 2.494,3.658l-8.799 -0.005 -2.577 -3.685 0.001 0.001zm-46.046 -59.016c0.456,0.745 1.076,1.597 1.596,2.335l4.766 6.947c2.689,3.89 5.261,7.792 8.012,11.649 1.08,1.515 2.08,3.145 3.172,4.639 1.118,1.529 2.1,3.049 3.179,4.63l3.99 5.803c0.211,0.319 0.632,0.833 0.762,1.171 -0.201,0.351 -0.565,0.645 -0.814,0.968 -0.941,1.22 -2.2,2.519 -3.2,3.724l-2.383 2.776c-0.179,0.201 -0.261,0.288 -0.407,0.478 -0.141,0.182 -0.265,0.284 -0.41,0.471 -0.254,0.326 -0.524,0.583 -0.788,0.904 -0.489,0.598 -1.105,1.299 -1.591,1.877 -0.294,0.348 -0.554,0.608 -0.825,0.941 -0.269,0.333 -0.525,0.582 -0.788,0.903l-14.264 16.639 5.714 0 2.805 -3.234c1.46,-1.577 2.717,-3.3 4.188,-4.87l10.491 -12.193c0.743,-0.856 4.368,-4.986 4.801,-5.642 0.161,0.096 0.032,0.002 0.148,0.113l6.608 9.602c0.724,1.093 1.458,2.158 2.224,3.226 1.528,2.131 2.959,4.345 4.469,6.507 1.266,1.815 3.375,4.804 4.428,6.493l19.478 -0.022c-0.821,-1.188 -1.626,-2.463 -2.5,-3.642 -1.401,-1.894 -2.724,-4.076 -4.103,-5.989l-3.299 -4.803c-0.544,-0.821 -1.102,-1.594 -1.653,-2.399 -0.54,-0.788 -1.101,-1.607 -1.646,-2.406 -1.122,-1.643 -2.202,-3.197 -3.328,-4.849 -2.104,-3.091 -4.6,-6.533 -6.603,-9.599l-2.486 -3.628c-0.276,-0.427 -0.582,-0.776 -0.807,-1.186 0.224,-0.509 1.876,-2.231 2.288,-2.722l5.308 -6.186c1.562,-1.712 2.994,-3.574 4.56,-5.308l1.533 -1.782c1.265,-1.466 2.513,-3.007 3.817,-4.435 0.184,-0.202 0.211,-0.252 0.365,-0.446 0.127,-0.159 0.25,-0.269 0.38,-0.429 0.141,-0.175 0.268,-0.291 0.411,-0.471 0.166,-0.209 0.174,-0.229 0.373,-0.437 1.146,-1.194 3.248,-3.817 4.528,-5.267l0.718 -0.843c-1.017,-0.179 -3.57,-0.03 -4.831,-0.032 -0.794,-0.002 -0.862,-0.138 -1.238,0.382 -0.575,0.797 -2.879,3.281 -3.704,4.329l-5.224 6.04c-0.208,0.24 -0.529,0.647 -0.734,0.892l-1.514 1.723c-0.138,0.155 -0.214,0.295 -0.362,0.449l-4.843 5.618c-0.78,0.932 -3.88,4.608 -4.437,5.132l-2.109 -3.052c-2.789,-4.149 -5.663,-8.193 -8.457,-12.313l-4.229 -6.157c-0.221,-0.332 -1.97,-2.987 -2.115,-3.043l-19.421 0.024 0.001 0z"/>
  </g>
  <circle class="fil1 str0" cx="75" cy="75" r="68.156"/>
 </g>
</svg>
