<?xml version="1.0" encoding="UTF-8"?>
<!DOCTYPE svg PUBLIC "-//W3C//DTD SVG 1.1//EN" "http://www.w3.org/Graphics/SVG/1.1/DTD/svg11.dtd">
<!-- Creator: CorelDRAW -->
<svg xmlns="http://www.w3.org/2000/svg" xml:space="preserve" width="150px" height="150px" version="1.1" style="shape-rendering:geometricPrecision; text-rendering:geometricPrecision; image-rendering:optimizeQuality; fill-rule:evenodd; clip-rule:evenodd"
viewBox="0 0 150 150"
 xmlns:xlink="http://www.w3.org/1999/xlink"
 xmlns:xodm="http://www.corel.com/coreldraw/odm/2003">
 <defs>
  <style type="text/css">
   <![CDATA[
    .str0 {stroke:red;stroke-width:5;stroke-miterlimit:2.61313}
    .fil0 {fill:none}
    .fil1 {fill:white}
   ]]>
  </style>
 </defs>
 <g id="Layer_x0020_1">
  <metadata id="CorelCorpID_0Corel-Layer"/>
 </g>
 <g id="Layer_x0020_1_0">
  <metadata id="CorelCorpID_1Corel-Layer"/>
 </g>
 <g id="Layer_x0020_1_1">
  <metadata id="CorelCorpID_2Corel-Layer"/>
 </g>
 <g id="Layer_x0020_1_2">
  <metadata id="CorelCorpID_3Corel-Layer"/>
 </g>
 <g id="Layer_x0020_1_3">
  <metadata id="CorelCorpID_4Corel-Layer"/>
 </g>
 <g id="Layer_x0020_1_4">
  <metadata id="CorelCorpID_5Corel-Layer"/>
 </g>
 <g id="Layer_x0020_1_5">
  <metadata id="CorelCorpID_6Corel-Layer"/>
  <circle class="fil0 str0" cx="75" cy="75" r="68.156"/>
  <g id="_2183556962848">
   <path class="fil1" d="M67.153 87.116l-0.032 -24.238 21.132 12.073c-0.14,0.169 0.076,-0.011 -0.264,0.238l-20.836 11.927 0 0zm48.409 -9.213c0.174,-5.336 -0.049,-11.186 -0.7,-16.418 -0.748,-6.021 -1.435,-9.162 -5.311,-11.86 -3.236,-2.252 -10.179,-2.314 -14.76,-2.545 -5.574,-0.281 -11.153,-0.404 -16.746,-0.454 -10.431,-0.094 -22.974,-0.124 -33.073,1.426 -4.726,0.725 -8.072,3.422 -9.1,8.225 -1.017,4.755 -1.321,10.645 -1.446,15.685 -0.135,5.408 0.004,11.304 0.658,16.619 0.721,5.871 1.461,9.298 5.334,11.838 3.304,2.167 10.247,2.2 14.766,2.475 11.724,0.716 38.83,0.912 49.927,-0.898 4.827,-0.787 8.03,-3.764 8.922,-8.369 0.999,-5.154 1.354,-10.345 1.529,-15.724l0 0z"/>
  </g>
 </g>
</svg>
